<mxfile host="app.diagrams.net" modified="2023-09-14T15:12:35.235Z" agent="Mozilla/5.0 (Windows NT 10.0; Win64; x64) AppleWebKit/537.36 (KHTML, like Gecko) Chrome/116.0.0.0 Safari/537.36" version="21.6.5" etag="r5zN2pkXnBoXkbi_i4Hi" type="github">
  <diagram name="Page-1" id="mE4u-Z6n6dXTsOQkbJ7T">
    <mxGraphModel>
      <root>
        <mxCell id="0" />
        <mxCell id="1" parent="0" />
      </root>
    </mxGraphModel>
  </diagram>
</mxfile>
